Coordinates
version=1
nRows=54
nColumns=12
inDegrees=yes

Units are S.I. units (second, meters, Newtons, ...)
Angles are in degrees

endheader
time	SC_y	SC_z	SC_x	AC_y	AC_z	AC_x	GH_y	GH_z	GH_yy	EL_x	PS_y
       0.0              -16.39          12.22          35.25          58.96          6.526         -17.09          1.745          40.73          86.73          22.07          154.1
  0.008136              -16.39          12.22          35.25          58.96          6.523         -17.09          1.742          40.73          86.73          22.09          154.0
   0.01627               -16.4          12.22          35.25          58.96           6.52         -17.09          1.739          40.73          86.74          22.11          154.0
   0.02441               -16.4          12.22          35.25          58.96          6.517         -17.08          1.736          40.73          86.74          22.12          154.0
   0.03254               -16.4          12.21          35.26          58.96          6.513         -17.08          1.733          40.73          86.74          22.14          154.0
   0.04068               -16.4          12.21          35.26          58.95           6.51         -17.08          1.729          40.73          86.74          22.17          154.0
   0.04882               -16.4          12.21          35.26          58.95          6.506         -17.07          1.725          40.73          86.75          22.19          154.0
   0.05695               -16.4          12.21          35.27          58.95          6.502         -17.07          1.721          40.73          86.75          22.21          154.0
   0.06509               -16.4           12.2          35.27          58.95          6.497         -17.07          1.717          40.72          86.75          22.24          154.0
   0.07322              -16.41           12.2          35.28          58.95          6.492         -17.06          1.712          40.72          86.76          22.27          154.0
   0.08136              -16.41           12.2          35.28          58.95          6.487         -17.06          1.707          40.72          86.76           22.3          154.0
    0.0895              -16.41           12.2          35.29          58.95          6.482         -17.05          1.702          40.72          86.77          22.33          153.9
   0.09763              -16.41          12.19          35.29          58.95          6.476         -17.05          1.696          40.72          86.77          22.37          153.9
    0.1058              -16.41          12.19           35.3          58.95          6.469         -17.04          1.689          40.71          86.78          22.41          153.9
    0.1139              -16.42          12.18           35.3          58.95          6.462         -17.03          1.682          40.71          86.79          22.45          153.9
     0.122              -16.42          12.18          35.31          58.95          6.455         -17.03          1.675          40.71          86.79          22.49          153.9
    0.1302              -16.42          12.17          35.32          58.95          6.447         -17.02          1.667           40.7           86.8          22.54          153.9
    0.1383              -16.43          12.17          35.33          58.94          6.438         -17.01          1.658           40.7          86.81           22.6          153.8
    0.1464              -16.43          12.16          35.33          58.94          6.428          -17.0          1.648           40.7          86.82          22.65          153.8
    0.1546              -16.43          12.16          35.34          58.94          6.417         -16.99          1.638          40.69          86.82          22.72          153.8
    0.1627              -16.44          12.15          35.36          58.94          6.406         -16.98          1.626          40.69          86.83          22.79          153.8
    0.1709              -16.44          12.14          35.37          58.94          6.393         -16.97          1.613          40.68          86.85          22.86          153.7
     0.179              -16.45          12.13          35.38          58.94          6.378         -16.96          1.599          40.68          86.86          22.95          153.7
    0.1871              -16.45          12.12          35.39          58.93          6.363         -16.94          1.584          40.67          86.87          23.04          153.7
    0.1953              -16.46          12.11          35.41          58.93          6.345         -16.93          1.566          40.66          86.89          23.15          153.6
    0.2034              -16.47           12.1          35.43          58.93          6.326         -16.91          1.547          40.66           86.9          23.27          153.6
    0.2115              -16.48          12.09          35.45          58.92          6.304         -16.89          1.525          40.65          86.92           23.4          153.5
    0.2197              -16.49          12.08          35.47          58.92          6.279         -16.87          1.501          40.64          86.94          23.54          153.5
    0.2278               -16.5          12.06           35.5          58.92          6.251         -16.84          1.473          40.63          86.97          23.71          153.4
    0.2359              -16.51          12.04          35.52          58.91          6.219         -16.81          1.442          40.61           87.0           23.9          153.3
    0.2441              -16.52          12.02          35.56          58.91          6.183         -16.78          1.406           40.6          87.03          24.11          153.2
    0.2522              -16.54          11.99          35.59           58.9          6.142         -16.74          1.365          40.58          87.06          24.36          153.1
    0.2604              -16.56          11.97          35.64          58.89          6.094          -16.7          1.317          40.56          87.11          24.65          153.0
    0.2685              -16.58          11.93          35.69          58.88          6.038         -16.65          1.262          40.54          87.15          24.98          152.9
    0.2766               -16.6          11.89          35.75          58.87          5.973         -16.59          1.198          40.52          87.21          25.37          152.7
    0.2848              -16.63          11.85          35.82          58.86          5.897         -16.52          1.122          40.48          87.28          25.83          152.5
    0.2929              -16.67          11.79           35.9          58.85          5.805         -16.44          1.031          40.45          87.36          26.37          152.3
     0.301              -16.71          11.73           36.0          58.83          5.696         -16.34          0.923          40.41          87.45          27.02          152.0
    0.3092              -16.76          11.65          36.12          58.81          5.564         -16.22         0.7919          40.35          87.57          27.81          151.7
    0.3173              -16.82          11.56          36.27          58.79          5.402         -16.07         0.6319          40.29          87.71          28.78          151.3
    0.3254              -16.89          11.44          36.45          58.76          5.203         -15.89         0.4343          40.21          87.88          29.97          150.8
    0.3336              -16.99          11.29          36.67          58.72          4.954         -15.67         0.1879          40.11           88.1          31.45          150.2
    0.3417              -17.11          11.11          36.96          58.67          4.641         -15.38        -0.1224          39.99          88.37          33.32          149.5
    0.3498              -17.26          10.87          37.32          58.61          4.243         -15.02        -0.5169          39.83          88.72          35.69          148.5
     0.358              -17.45          10.57          37.78          58.54          3.734         -14.56         -1.022          39.63          89.16          38.73          147.3
    0.3661               -17.7          10.18          38.37          58.44           3.08         -13.96          -1.67          39.37          89.73          42.64          145.7
    0.3743              -18.02          9.686          39.13          58.31          2.245          -13.2         -2.498          39.03          90.45          47.62          143.7
    0.3824              -18.42          9.064          40.09          58.16          1.195         -12.25         -3.538          38.62          91.37          53.89          141.1
    0.3905               -18.9          8.306          41.25          57.96       -0.08512         -11.09         -4.807          38.11          92.48          61.53          138.0
    0.3987              -19.46          7.428           42.6          57.74         -1.568         -9.741         -6.277          37.52          93.77          70.38          134.4
    0.4068              -20.07          6.477          44.05           57.5         -3.175         -8.283         -7.869          36.88          95.17          79.97          130.5
    0.4149              -20.68          5.525          45.51          57.26         -4.781         -6.824         -9.461          36.24          96.57          89.55          126.6
    0.4231              -21.24          4.647          46.86          57.03         -6.264         -5.477         -10.93          35.65          97.86          98.41          123.0
    0.4312              -21.73          3.889          48.02          56.84         -7.544         -4.315          -12.2          35.14          98.97          106.0          119.9
